<?xml version="1.0" encoding="iso-8859-1"?>
<!-- Generator: Adobe Illustrator 19.0.0, SVG Export Plug-In . SVG Version: 6.00 Build 0)  -->
<svg version="1.1" id="Capa_1" xmlns="http://www.w3.org/2000/svg" xmlns:xlink="http://www.w3.org/1999/xlink" x="0px" y="0px"
	 viewBox="0 0 490.051 490.051" style="enable-background:new 0 0 490.051 490.051;" xml:space="preserve">
<g>
	<g>
		<g>
			<path d="M82.551,54.151l-2.7-26.1c-0.4-3.9-3.1-7-6.6-8.2l-58.4-19.4c-5.1-1.6-10.5,1.2-12.4,6.2c-1.6,5.1,1.2,10.9,6.2,12.4
				l52.1,17.5l26.8,241.9h-5.4c-31.9,0-57.6,25.7-57.6,57.6s25.7,57.5,57.6,57.5h316.5c5.4,0,9.7-4.3,9.7-9.7s-4.3-9.7-9.7-9.7
				h-316.5c-21,0-38.1-17.1-38.1-38.1s17.1-37.7,38.1-37.7h316.5c5.4,0,9.7-4.3,9.7-9.7c0,0,0,0,0-0.4l79.7-234.1L82.551,54.151
				L82.551,54.151z M171.951,224.851c0,5.4-4.3,9.7-9.7,9.7s-9.7-4.3-9.7-9.7v-107.3c0-5.4,4.3-9.7,9.7-9.7s9.7,4.3,9.7,9.7V224.851
				z M238.451,224.851c0,5.4-4.3,9.7-9.7,9.7s-9.7-4.3-9.7-9.7v-107.3c0-5.4,4.3-9.7,9.7-9.7s9.7,4.3,9.7,9.7V224.851z
				 M304.951,224.851c0,5.4-4.3,9.7-9.7,9.7s-9.7-4.3-9.7-9.7v-107.3c0-5.4,4.3-9.7,9.7-9.7s9.7,4.3,9.7,9.7V224.851z
				 M371.451,224.851c0,5.4-4.3,9.7-9.7,9.7s-9.7-4.3-9.7-9.7v-107.3c0-5.4,4.3-9.7,9.7-9.7s9.7,4.3,9.7,9.7V224.851z"/>
			<circle cx="139.651" cy="452.351" r="37.7"/>
			<circle cx="345.351" cy="452.351" r="37.7"/>
		</g>
	</g>
</g>
<g>
</g>
<g>
</g>
<g>
</g>
<g>
</g>
<g>
</g>
<g>
</g>
<g>
</g>
<g>
</g>
<g>
</g>
<g>
</g>
<g>
</g>
<g>
</g>
<g>
</g>
<g>
</g>
<g>
</g>
</svg>
