<?xml version="1.0" encoding="iso-8859-1"?>
<!-- Generator: Adobe Illustrator 18.0.0, SVG Export Plug-In . SVG Version: 6.00 Build 0)  -->
<!DOCTYPE svg PUBLIC "-//W3C//DTD SVG 1.1//EN" "http://www.w3.org/Graphics/SVG/1.1/DTD/svg11.dtd">
<svg version="1.1" id="Capa_1" xmlns="http://www.w3.org/2000/svg" xmlns:xlink="http://www.w3.org/1999/xlink" x="0px" y="0px"
	 viewBox="0 0 229.809 229.809" style="enable-background:new 0 0 229.809 229.809;" xml:space="preserve">
<g>
	<path d="M229.353,21.421c-1.42-3.891-5.729-5.895-9.616-4.476l-21.113,7.703c-2.524,0.921-4.363,3.347-4.82,5.993l-3.302,19.332
		H7.5c-2.217,0-4.319,0.756-5.745,2.455c-1.425,1.697-2.025,3.826-1.642,6.009l16.041,91.073c0.603,3.429,3.486,5.964,6.962,6.161
		c0,0,156.238,8.838,156.382,8.838c3.473,0,6.472-2.397,7.278-5.738c0.098-0.312,21.068-121.52,21.068-121.52l17.032-6.214
		C228.769,29.618,230.773,25.311,229.353,21.421z"/>
	<path d="M189.953,187.973h-8.875c-0.11,0-0.217,0.15-0.326,0.155c-2.819-6.093-8.974-10.407-16.115-10.407
		c-7.135,0-13.285,4.252-16.107,10.252H81.85c-2.823-6-8.974-10.183-16.109-10.183c-7.182,0-13.366,4.223-16.163,10.368
		c-0.416-0.071-0.841-0.186-1.276-0.186H34.418c-4.143,0-7.5,3.357-7.5,7.5c0,4.143,3.358,7.5,7.5,7.5h13.883
		c0.453,0,0.896,0.092,1.327,0.015c2.82,6.089,8.973,10.263,16.112,10.263c7.092,0,13.208-4.277,16.055-10.277h66.789
		c2.847,6,8.962,10.347,16.053,10.347c7.098,0,13.22-4.264,16.063-10.297c0.126,0.007,0.251-0.05,0.379-0.05h8.875
		c4.143,0,7.5-3.357,7.5-7.5C197.453,191.331,194.096,187.973,189.953,187.973z"/>
</g>
<g>
</g>
<g>
</g>
<g>
</g>
<g>
</g>
<g>
</g>
<g>
</g>
<g>
</g>
<g>
</g>
<g>
</g>
<g>
</g>
<g>
</g>
<g>
</g>
<g>
</g>
<g>
</g>
<g>
</g>
</svg>
